<mxfile host="app.diagrams.net" agent="Mozilla/5.0 (Macintosh; Intel Mac OS X 10_15_7) AppleWebKit/537.36 (KHTML, like Gecko) Chrome/131.0.0.0 Safari/537.36" version="26.0.1">
  <diagram id="C5RBs43oDa-KdzZeNtuy" name="Page-1">
    <mxGraphModel grid="1" page="1" gridSize="10" guides="1" tooltips="1" connect="1" arrows="1" fold="1" pageScale="1" pageWidth="1169" pageHeight="827" math="0" shadow="0">
      <root>
        <mxCell id="WIyWlLk6GJQsqaUBKTNV-0" />
        <mxCell id="WIyWlLk6GJQsqaUBKTNV-1" parent="WIyWlLk6GJQsqaUBKTNV-0" />
        <mxCell id="zkfFHV4jXpPFQw0GAbJ--0" value="Evento" style="swimlane;fontStyle=2;align=center;verticalAlign=top;childLayout=stackLayout;horizontal=1;startSize=26;horizontalStack=0;resizeParent=1;resizeLast=0;collapsible=1;marginBottom=0;rounded=1;shadow=0;strokeWidth=1;strokeColor=#0D5295;fillColor=#3399FF;" vertex="1" parent="WIyWlLk6GJQsqaUBKTNV-1">
          <mxGeometry x="480" y="-700" width="200" height="100" as="geometry">
            <mxRectangle x="230" y="140" width="160" height="26" as="alternateBounds" />
          </mxGeometry>
        </mxCell>
        <mxCell id="XmzZ2GE_Ssw9oD_W6cJO-23" value="nome;&lt;br style=&quot;padding: 0px; margin: 0px;&quot;&gt;data;&lt;br style=&quot;padding: 0px; margin: 0px;&quot;&gt;Location;&lt;br style=&quot;padding: 0px; margin: 0px;&quot;&gt;StringCapienza;&lt;div style=&quot;padding: 0px; margin: 0px;&quot;&gt;&lt;br style=&quot;padding: 0px; margin: 0px; text-wrap-mode: nowrap;&quot;&gt;&lt;/div&gt;" style="text;strokeColor=#0D5295;fillColor=#3399FF;align=left;verticalAlign=top;spacingLeft=4;spacingRight=4;overflow=hidden;rotatable=0;points=[[0,0.5],[1,0.5]];portConstraint=eastwest;whiteSpace=wrap;html=1;" vertex="1" parent="zkfFHV4jXpPFQw0GAbJ--0">
          <mxGeometry y="26" width="200" height="74" as="geometry" />
        </mxCell>
        <mxCell id="r1slfkMwYTtcWdOaAPJ--2" value="Persona" style="swimlane;fontStyle=1;align=center;verticalAlign=top;childLayout=stackLayout;horizontal=1;startSize=26;horizontalStack=0;resizeParent=1;resizeParentMax=0;resizeLast=0;collapsible=1;marginBottom=0;whiteSpace=wrap;html=1;rounded=1;strokeColor=#0D5295;fillColor=#CCFF99;" vertex="1" parent="WIyWlLk6GJQsqaUBKTNV-1">
          <mxGeometry x="790" y="-373" width="160" height="100" as="geometry" />
        </mxCell>
        <mxCell id="r1slfkMwYTtcWdOaAPJ--3" value="&lt;div&gt;CF;&lt;/div&gt;&lt;div&gt;Nome;&lt;/div&gt;&lt;div&gt;Cognome;&lt;br&gt;&lt;/div&gt;&lt;div&gt;email;&lt;/div&gt;" style="text;strokeColor=#0D5295;fillColor=#CCFF99;align=left;verticalAlign=top;spacingLeft=4;spacingRight=4;overflow=hidden;rotatable=0;points=[[0,0.5],[1,0.5]];portConstraint=eastwest;whiteSpace=wrap;html=1;" vertex="1" parent="r1slfkMwYTtcWdOaAPJ--2">
          <mxGeometry y="26" width="160" height="74" as="geometry" />
        </mxCell>
        <mxCell id="r1slfkMwYTtcWdOaAPJ--26" value="Biglietto" style="swimlane;fontStyle=1;align=center;verticalAlign=top;childLayout=stackLayout;horizontal=1;startSize=26;horizontalStack=0;resizeParent=1;resizeParentMax=0;resizeLast=0;collapsible=1;marginBottom=0;whiteSpace=wrap;html=1;rounded=1;strokeColor=#0D5295;fillColor=#00FF00;" vertex="1" parent="WIyWlLk6GJQsqaUBKTNV-1">
          <mxGeometry x="800" y="-519" width="140" height="50" as="geometry" />
        </mxCell>
        <mxCell id="r1slfkMwYTtcWdOaAPJ--27" value="&lt;div&gt;ID&lt;/div&gt;" style="text;strokeColor=#0D5295;fillColor=#00FF00;align=left;verticalAlign=top;spacingLeft=4;spacingRight=4;overflow=hidden;rotatable=0;points=[[0,0.5],[1,0.5]];portConstraint=eastwest;whiteSpace=wrap;html=1;" vertex="1" parent="r1slfkMwYTtcWdOaAPJ--26">
          <mxGeometry y="26" width="140" height="24" as="geometry" />
        </mxCell>
        <mxCell id="r1slfkMwYTtcWdOaAPJ--69" value="Guardaroba" style="swimlane;fontStyle=1;align=center;verticalAlign=top;childLayout=stackLayout;horizontal=1;startSize=26;horizontalStack=0;resizeParent=1;resizeParentMax=0;resizeLast=0;collapsible=1;marginBottom=0;whiteSpace=wrap;html=1;rounded=1;strokeColor=#0D5295;fillColor=#33FFFF;" vertex="1" parent="WIyWlLk6GJQsqaUBKTNV-1">
          <mxGeometry x="280" y="-243" width="160" height="80" as="geometry" />
        </mxCell>
        <mxCell id="r1slfkMwYTtcWdOaAPJ--70" value="&lt;div&gt;sequenzaDiPartenza:&amp;nbsp;&lt;/div&gt;&lt;div&gt;maxGrucce;&amp;nbsp;&lt;/div&gt;&lt;div&gt;grucceAssegnate;&amp;nbsp;&lt;br&gt;&lt;/div&gt;" style="text;strokeColor=#0D5295;fillColor=#33FFFF;align=left;verticalAlign=top;spacingLeft=4;spacingRight=4;overflow=hidden;rotatable=0;points=[[0,0.5],[1,0.5]];portConstraint=eastwest;whiteSpace=wrap;html=1;" vertex="1" parent="r1slfkMwYTtcWdOaAPJ--69">
          <mxGeometry y="26" width="160" height="54" as="geometry" />
        </mxCell>
        <mxCell id="Rmf4fN7mxsdTf48tF9wf-11" value="Staff" style="swimlane;fontStyle=1;align=center;verticalAlign=top;childLayout=stackLayout;horizontal=1;startSize=26;horizontalStack=0;resizeParent=1;resizeParentMax=0;resizeLast=0;collapsible=1;marginBottom=0;whiteSpace=wrap;html=1;rounded=1;strokeColor=#0D5295;fillColor=#CCFF99;" vertex="1" parent="WIyWlLk6GJQsqaUBKTNV-1">
          <mxGeometry x="920" y="-153" width="200" height="70" as="geometry" />
        </mxCell>
        <mxCell id="Rmf4fN7mxsdTf48tF9wf-12" value="&lt;div&gt;numeroMassimoBiglietti;&lt;/div&gt;&lt;div&gt;password;&lt;/div&gt;" style="text;strokeColor=#0D5295;fillColor=#CCFF99;align=left;verticalAlign=top;spacingLeft=4;spacingRight=4;overflow=hidden;rotatable=0;points=[[0,0.5],[1,0.5]];portConstraint=eastwest;whiteSpace=wrap;html=1;" vertex="1" parent="Rmf4fN7mxsdTf48tF9wf-11">
          <mxGeometry y="26" width="200" height="44" as="geometry" />
        </mxCell>
        <mxCell id="Rmf4fN7mxsdTf48tF9wf-15" value="Organizzatore" style="swimlane;fontStyle=1;align=center;verticalAlign=top;childLayout=stackLayout;horizontal=1;startSize=26;horizontalStack=0;resizeParent=1;resizeParentMax=0;resizeLast=0;collapsible=1;marginBottom=0;whiteSpace=wrap;html=1;rounded=1;strokeColor=#0D5295;fillColor=#CCFF99;" vertex="1" parent="WIyWlLk6GJQsqaUBKTNV-1">
          <mxGeometry x="600" y="-153" width="200" height="50" as="geometry" />
        </mxCell>
        <mxCell id="Rmf4fN7mxsdTf48tF9wf-16" value="password;" style="text;strokeColor=#0D5295;fillColor=#CCFF99;align=left;verticalAlign=top;spacingLeft=4;spacingRight=4;overflow=hidden;rotatable=0;points=[[0,0.5],[1,0.5]];portConstraint=eastwest;whiteSpace=wrap;html=1;" vertex="1" parent="Rmf4fN7mxsdTf48tF9wf-15">
          <mxGeometry y="26" width="200" height="24" as="geometry" />
        </mxCell>
        <mxCell id="Rmf4fN7mxsdTf48tF9wf-21" value="Banco" style="swimlane;fontStyle=1;align=center;verticalAlign=top;childLayout=stackLayout;horizontal=1;startSize=26;horizontalStack=0;resizeParent=1;resizeParentMax=0;resizeLast=0;collapsible=1;marginBottom=0;whiteSpace=wrap;html=1;rounded=1;strokeColor=#0D5295;fillColor=#33FFFF;" vertex="1" parent="WIyWlLk6GJQsqaUBKTNV-1">
          <mxGeometry x="180" y="-413" width="130" height="50" as="geometry" />
        </mxCell>
        <mxCell id="Rmf4fN7mxsdTf48tF9wf-22" value="&lt;div&gt;NumeroBanco&lt;/div&gt;" style="text;strokeColor=#0D5295;fillColor=#33FFFF;align=left;verticalAlign=top;spacingLeft=4;spacingRight=4;overflow=hidden;rotatable=0;points=[[0,0.5],[1,0.5]];portConstraint=eastwest;whiteSpace=wrap;html=1;" vertex="1" parent="Rmf4fN7mxsdTf48tF9wf-21">
          <mxGeometry y="26" width="130" height="24" as="geometry" />
        </mxCell>
        <mxCell id="XmzZ2GE_Ssw9oD_W6cJO-2" value="" style="endArrow=none;html=1;rounded=0;exitX=0.5;exitY=0;exitDx=0;exitDy=0;strokeColor=#0D5295;entryX=0;entryY=0.5;entryDx=0;entryDy=0;" edge="1" parent="WIyWlLk6GJQsqaUBKTNV-1" source="Rmf4fN7mxsdTf48tF9wf-21" target="zkfFHV4jXpPFQw0GAbJ--0">
          <mxGeometry width="50" height="50" relative="1" as="geometry">
            <mxPoint x="560" y="-370" as="sourcePoint" />
            <mxPoint x="508" y="-777" as="targetPoint" />
            <Array as="points">
              <mxPoint x="250" y="-650" />
            </Array>
          </mxGeometry>
        </mxCell>
        <mxCell id="XmzZ2GE_Ssw9oD_W6cJO-9" value="Has" style="edgeLabel;html=1;align=center;verticalAlign=middle;resizable=0;points=[];strokeColor=#0D5295;" connectable="0" vertex="1" parent="XmzZ2GE_Ssw9oD_W6cJO-2">
          <mxGeometry x="-0.1032" relative="1" as="geometry">
            <mxPoint y="1" as="offset" />
          </mxGeometry>
        </mxCell>
        <mxCell id="XmzZ2GE_Ssw9oD_W6cJO-3" value="" style="endArrow=none;html=1;rounded=0;exitX=0.5;exitY=0;exitDx=0;exitDy=0;strokeColor=#0D5295;" edge="1" parent="WIyWlLk6GJQsqaUBKTNV-1">
          <mxGeometry width="50" height="50" relative="1" as="geometry">
            <mxPoint x="880" y="-519" as="sourcePoint" />
            <mxPoint x="680" y="-640" as="targetPoint" />
            <Array as="points">
              <mxPoint x="880" y="-640" />
            </Array>
          </mxGeometry>
        </mxCell>
        <mxCell id="XmzZ2GE_Ssw9oD_W6cJO-10" value="Generates" style="edgeLabel;html=1;align=center;verticalAlign=middle;resizable=0;points=[];strokeColor=#0D5295;" connectable="0" vertex="1" parent="XmzZ2GE_Ssw9oD_W6cJO-3">
          <mxGeometry x="-0.4599" y="-3" relative="1" as="geometry">
            <mxPoint as="offset" />
          </mxGeometry>
        </mxCell>
        <mxCell id="XmzZ2GE_Ssw9oD_W6cJO-5" value="" style="endArrow=none;html=1;rounded=0;entryX=0.421;entryY=1.135;entryDx=0;entryDy=0;entryPerimeter=0;strokeColor=#0D5295;fillColor=#33FFFF;" edge="1" parent="WIyWlLk6GJQsqaUBKTNV-1" target="Rmf4fN7mxsdTf48tF9wf-22">
          <mxGeometry width="50" height="50" relative="1" as="geometry">
            <mxPoint x="120" y="-243" as="sourcePoint" />
            <mxPoint x="170" y="-293" as="targetPoint" />
          </mxGeometry>
        </mxCell>
        <mxCell id="XmzZ2GE_Ssw9oD_W6cJO-6" value="type" style="edgeLabel;html=1;align=center;verticalAlign=middle;resizable=0;points=[];strokeColor=#0D5295;fillColor=#33FFFF;" connectable="0" vertex="1" parent="XmzZ2GE_Ssw9oD_W6cJO-5">
          <mxGeometry x="-0.11" y="3" relative="1" as="geometry">
            <mxPoint as="offset" />
          </mxGeometry>
        </mxCell>
        <mxCell id="XmzZ2GE_Ssw9oD_W6cJO-7" value="" style="endArrow=none;html=1;rounded=0;entryX=0.621;entryY=1.096;entryDx=0;entryDy=0;entryPerimeter=0;exitX=0.5;exitY=0;exitDx=0;exitDy=0;strokeColor=#0D5295;fillColor=#33FFFF;" edge="1" parent="WIyWlLk6GJQsqaUBKTNV-1" source="r1slfkMwYTtcWdOaAPJ--69" target="Rmf4fN7mxsdTf48tF9wf-22">
          <mxGeometry width="50" height="50" relative="1" as="geometry">
            <mxPoint x="130" y="-233" as="sourcePoint" />
            <mxPoint x="249" y="-347" as="targetPoint" />
          </mxGeometry>
        </mxCell>
        <mxCell id="XmzZ2GE_Ssw9oD_W6cJO-8" value="type" style="edgeLabel;html=1;align=center;verticalAlign=middle;resizable=0;points=[];strokeColor=#0D5295;fillColor=#33FFFF;" connectable="0" vertex="1" parent="XmzZ2GE_Ssw9oD_W6cJO-7">
          <mxGeometry x="-0.11" y="3" relative="1" as="geometry">
            <mxPoint as="offset" />
          </mxGeometry>
        </mxCell>
        <mxCell id="XmzZ2GE_Ssw9oD_W6cJO-11" value="" style="endArrow=none;html=1;rounded=0;entryX=0.519;entryY=0.98;entryDx=0;entryDy=0;entryPerimeter=0;exitX=0.5;exitY=0;exitDx=0;exitDy=0;strokeColor=#0D5295;fillColor=#CCFF99;" edge="1" parent="WIyWlLk6GJQsqaUBKTNV-1" source="Rmf4fN7mxsdTf48tF9wf-15" target="r1slfkMwYTtcWdOaAPJ--3">
          <mxGeometry width="50" height="50" relative="1" as="geometry">
            <mxPoint x="140" y="-223" as="sourcePoint" />
            <mxPoint x="259" y="-337" as="targetPoint" />
          </mxGeometry>
        </mxCell>
        <mxCell id="XmzZ2GE_Ssw9oD_W6cJO-12" value="type" style="edgeLabel;html=1;align=center;verticalAlign=middle;resizable=0;points=[];strokeColor=#0D5295;fillColor=#CCFF99;" connectable="0" vertex="1" parent="XmzZ2GE_Ssw9oD_W6cJO-11">
          <mxGeometry x="-0.11" y="3" relative="1" as="geometry">
            <mxPoint as="offset" />
          </mxGeometry>
        </mxCell>
        <mxCell id="XmzZ2GE_Ssw9oD_W6cJO-13" value="" style="endArrow=none;html=1;rounded=0;entryX=0.506;entryY=1.007;entryDx=0;entryDy=0;entryPerimeter=0;strokeColor=#0D5295;fillColor=#CCFF99;" edge="1" parent="WIyWlLk6GJQsqaUBKTNV-1" target="r1slfkMwYTtcWdOaAPJ--3">
          <mxGeometry width="50" height="50" relative="1" as="geometry">
            <mxPoint x="1020" y="-153" as="sourcePoint" />
            <mxPoint x="1139" y="-267" as="targetPoint" />
          </mxGeometry>
        </mxCell>
        <mxCell id="XmzZ2GE_Ssw9oD_W6cJO-14" value="type" style="edgeLabel;html=1;align=center;verticalAlign=middle;resizable=0;points=[];strokeColor=#0D5295;fillColor=#CCFF99;" connectable="0" vertex="1" parent="XmzZ2GE_Ssw9oD_W6cJO-13">
          <mxGeometry x="-0.11" y="3" relative="1" as="geometry">
            <mxPoint as="offset" />
          </mxGeometry>
        </mxCell>
        <mxCell id="XmzZ2GE_Ssw9oD_W6cJO-16" value="" style="endArrow=none;html=1;rounded=0;entryX=0.5;entryY=1;entryDx=0;entryDy=0;exitX=0.5;exitY=0;exitDx=0;exitDy=0;strokeColor=#0D5295;" edge="1" parent="WIyWlLk6GJQsqaUBKTNV-1" source="r1slfkMwYTtcWdOaAPJ--2" target="r1slfkMwYTtcWdOaAPJ--26">
          <mxGeometry width="50" height="50" relative="1" as="geometry">
            <mxPoint x="870" y="-380" as="sourcePoint" />
            <mxPoint x="871.9600000000003" y="-457.5" as="targetPoint" />
          </mxGeometry>
        </mxCell>
        <mxCell id="XmzZ2GE_Ssw9oD_W6cJO-17" value="Text" style="edgeLabel;html=1;align=center;verticalAlign=middle;resizable=0;points=[];strokeColor=#0D5295;fillColor=#00FF00;" connectable="0" vertex="1" parent="XmzZ2GE_Ssw9oD_W6cJO-16">
          <mxGeometry x="-0.1355" y="-1" relative="1" as="geometry">
            <mxPoint as="offset" />
          </mxGeometry>
        </mxCell>
        <mxCell id="XmzZ2GE_Ssw9oD_W6cJO-21" value="Ingresso" style="swimlane;fontStyle=1;align=center;verticalAlign=top;childLayout=stackLayout;horizontal=1;startSize=26;horizontalStack=0;resizeParent=1;resizeParentMax=0;resizeLast=0;collapsible=1;marginBottom=0;whiteSpace=wrap;html=1;rounded=1;strokeColor=#0D5295;fillColor=#33FFFF;" vertex="1" parent="WIyWlLk6GJQsqaUBKTNV-1">
          <mxGeometry x="40" y="-243" width="160" height="50" as="geometry" />
        </mxCell>
        <mxCell id="XmzZ2GE_Ssw9oD_W6cJO-22" value="&lt;div&gt;&lt;br&gt;&lt;/div&gt;" style="text;strokeColor=#0D5295;fillColor=#33FFFF;align=left;verticalAlign=top;spacingLeft=4;spacingRight=4;overflow=hidden;rotatable=0;points=[[0,0.5],[1,0.5]];portConstraint=eastwest;whiteSpace=wrap;html=1;" vertex="1" parent="XmzZ2GE_Ssw9oD_W6cJO-21">
          <mxGeometry y="26" width="160" height="24" as="geometry" />
        </mxCell>
        <mxCell id="Nt3iIVqQ5rT4ZvqfRHcn-0" value="1,N" style="text;html=1;align=center;verticalAlign=middle;resizable=0;points=[];autosize=1;strokeColor=none;fillColor=none;" vertex="1" parent="WIyWlLk6GJQsqaUBKTNV-1">
          <mxGeometry x="430" y="-682" width="40" height="30" as="geometry" />
        </mxCell>
        <mxCell id="Nt3iIVqQ5rT4ZvqfRHcn-1" value="&lt;span style=&quot;color: rgb(0, 0, 0); font-family: Helvetica; font-size: 12px; font-style: normal; font-variant-ligatures: normal; font-variant-caps: normal; font-weight: 400; letter-spacing: normal; orphans: 2; text-align: center; text-indent: 0px; text-transform: none; widows: 2; word-spacing: 0px; -webkit-text-stroke-width: 0px; white-space: nowrap; background-color: rgb(251, 251, 251); text-decoration-thickness: initial; text-decoration-style: initial; text-decoration-color: initial; display: inline !important; float: none;&quot;&gt;1,N&lt;/span&gt;" style="text;whiteSpace=wrap;html=1;" vertex="1" parent="WIyWlLk6GJQsqaUBKTNV-1">
          <mxGeometry x="690" y="-670" width="50" height="40" as="geometry" />
        </mxCell>
        <mxCell id="Nt3iIVqQ5rT4ZvqfRHcn-2" value="1,1" style="text;html=1;align=center;verticalAlign=middle;resizable=0;points=[];autosize=1;strokeColor=none;fillColor=none;" vertex="1" parent="WIyWlLk6GJQsqaUBKTNV-1">
          <mxGeometry x="870" y="-469" width="40" height="30" as="geometry" />
        </mxCell>
        <mxCell id="Nt3iIVqQ5rT4ZvqfRHcn-3" value="&lt;span style=&quot;color: rgb(0, 0, 0); font-family: Helvetica; font-size: 12px; font-style: normal; font-variant-ligatures: normal; font-variant-caps: normal; font-weight: 400; letter-spacing: normal; orphans: 2; text-align: center; text-indent: 0px; text-transform: none; widows: 2; word-spacing: 0px; -webkit-text-stroke-width: 0px; white-space: nowrap; background-color: rgb(251, 251, 251); text-decoration-thickness: initial; text-decoration-style: initial; text-decoration-color: initial; display: inline !important; float: none;&quot;&gt;1,1&lt;/span&gt;" style="text;whiteSpace=wrap;html=1;" vertex="1" parent="WIyWlLk6GJQsqaUBKTNV-1">
          <mxGeometry x="880" y="-403" width="50" height="40" as="geometry" />
        </mxCell>
        <mxCell id="Nt3iIVqQ5rT4ZvqfRHcn-4" value="1,1" style="text;html=1;align=center;verticalAlign=middle;resizable=0;points=[];autosize=1;strokeColor=none;fillColor=none;" vertex="1" parent="WIyWlLk6GJQsqaUBKTNV-1">
          <mxGeometry x="240" y="-442" width="40" height="30" as="geometry" />
        </mxCell>
        <mxCell id="Nt3iIVqQ5rT4ZvqfRHcn-5" value="1,1" style="text;html=1;align=center;verticalAlign=middle;resizable=0;points=[];autosize=1;strokeColor=none;fillColor=none;" vertex="1" parent="WIyWlLk6GJQsqaUBKTNV-1">
          <mxGeometry x="880" y="-549" width="40" height="30" as="geometry" />
        </mxCell>
        <UserObject label="&lt;b style=&quot;font-weight:normal;&quot; id=&quot;docs-internal-guid-d6929ae1-7fff-7314-0745-4413b16f18a0&quot;&gt;&lt;span style=&quot;border:none;display:inline-block;overflow:hidden;width:216px;height:69px;&quot;&gt;&lt;img src=&quot;https://lh7-rt.googleusercontent.com/docsz/AD_4nXfZBNWREXd66l1NLnpFOE1mwneAP-Y-l5gbvUih0jME2aiEl-tMdbR9bDmd2I_jKeTi4eBUPLasQ6ggH1cDVLbMYkut-SmTnJCSowIU-wT4ZMhlv-KfZPBUIVoK6ewamScq1zyoOA?key=E788e6v34rOc4LRL-ts9fZId&quot; width=&quot;216&quot; height=&quot;217.97727272727272&quot; style=&quot;margin-left:0px;margin-top:-73.70454545454545px;&quot;&gt;&lt;/span&gt;&lt;/b&gt;" link="&lt;b style=&quot;font-weight:normal;&quot; id=&quot;docs-internal-guid-d6929ae1-7fff-7314-0745-4413b16f18a0&quot;&gt;&lt;span style=&quot;border:none;display:inline-block;overflow:hidden;width:216px;height:69px;&quot;&gt;&lt;img src=&quot;https://lh7-rt.googleusercontent.com/docsz/AD_4nXfZBNWREXd66l1NLnpFOE1mwneAP-Y-l5gbvUih0jME2aiEl-tMdbR9bDmd2I_jKeTi4eBUPLasQ6ggH1cDVLbMYkut-SmTnJCSowIU-wT4ZMhlv-KfZPBUIVoK6ewamScq1zyoOA?key=E788e6v34rOc4LRL-ts9fZId&quot; width=&quot;216&quot; height=&quot;217.97727272727272&quot; style=&quot;margin-left:0px;margin-top:-73.70454545454545px;&quot;&gt;&lt;/span&gt;&lt;/b&gt;" id="Nt3iIVqQ5rT4ZvqfRHcn-6">
          <mxCell style="text;whiteSpace=wrap;html=1;" vertex="1" parent="WIyWlLk6GJQsqaUBKTNV-1">
            <mxGeometry x="1090" y="-380" width="250" height="100" as="geometry" />
          </mxCell>
        </UserObject>
      </root>
    </mxGraphModel>
  </diagram>
</mxfile>
